<svg xmlns="http://www.w3.org/2000/svg" width="430" height="430" fill="none" viewBox="0 0 430 430"><g stroke-linecap="round" stroke-miterlimit="3.6" stroke-width="18"><path stroke="#ffa896" stroke-linejoin="round" d="m49.461 130.305.45 45 165.54 42.24 164.7-43.2.45-44.1m.03 0-165.63-42.75-165.63 42.75 165.63 42.75z"/><path stroke="#ffa896" stroke-linejoin="round" d="m215.681 215.575.07 68.41.11 111.03m142.35-213.92-142.31 35.1-143.94-33.24.38 80.23.42 88.97 143.07 43.14 142.41-44.1-.01-87.3z"/><path stroke="#e83a30" stroke-linejoin="round" d="m215.451 122.325-24.36 7.95-62.52 20.41-4.92 1.61-.12 41.8v.5l4.84 1.39 8.53 2.44-.18 83.05-.2 89.91m78.93-248.97.6.2.15.05 23.38 7.61 62.34 20.29 5.33 1.73-.12 40.95-4.39 1.4-1.74.56-7.25 2.32.22 78.52.26 94.97"/><path stroke="#e83a30" d="M215.88 120.665c-213.73-29.58-45.11-178.97 2.22 2.22"/><path stroke="#e83a30" d="M218.18 120.665c211.07-29.58 44.55-178.97-2.19 2.22"/></g></svg>