<svg xmlns="http://www.w3.org/2000/svg" width="430" height="430" style="width:100%;height:100%;transform:translate3d(0,0,0);content-visibility:visible" viewBox="0 0 430 430"><defs><filter id="a" width="100%" height="100%" x="0%" y="0%" filterUnits="objectBoundingBox"><feComponentTransfer in="SourceGraphic"><feFuncA tableValues="1.0 0.0" type="table"/></feComponentTransfer></filter><filter id="c" width="100%" height="100%" x="0%" y="0%" filterUnits="objectBoundingBox"><feComponentTransfer in="SourceGraphic"><feFuncA tableValues="1.0 0.0" type="table"/></feComponentTransfer></filter><filter id="e" width="100%" height="100%" x="0%" y="0%" filterUnits="objectBoundingBox"><feComponentTransfer in="SourceGraphic"><feFuncA tableValues="1.0 0.0" type="table"/></feComponentTransfer></filter><filter id="g" width="100%" height="100%" x="0%" y="0%" filterUnits="objectBoundingBox"><feComponentTransfer in="SourceGraphic"><feFuncA tableValues="1.0 0.0" type="table"/></feComponentTransfer></filter><filter id="i" width="100%" height="100%" x="0%" y="0%" filterUnits="objectBoundingBox"><feComponentTransfer in="SourceGraphic"><feFuncA tableValues="1.0 0.0" type="table"/></feComponentTransfer></filter><filter id="l" width="100%" height="100%" x="0%" y="0%" filterUnits="objectBoundingBox"><feComponentTransfer in="SourceGraphic"><feFuncA tableValues="1.0 0.0" type="table"/></feComponentTransfer></filter><filter id="n" width="100%" height="100%" x="0%" y="0%" filterUnits="objectBoundingBox"><feComponentTransfer in="SourceGraphic"><feFuncA tableValues="1.0 0.0" type="table"/></feComponentTransfer></filter><filter id="p" width="100%" height="100%" x="0%" y="0%" filterUnits="objectBoundingBox"><feComponentTransfer in="SourceGraphic"><feFuncA tableValues="1.0 0.0" type="table"/></feComponentTransfer></filter><filter id="r" width="100%" height="100%" x="0%" y="0%" filterUnits="objectBoundingBox"><feComponentTransfer in="SourceGraphic"><feFuncA tableValues="1.0 0.0" type="table"/></feComponentTransfer></filter><mask id="J" mask-type="alpha"><g filter="url(#a)"><path fill="#fff" d="M0 0h430v430H0z" opacity="0"/><use xmlns:ns1="http://www.w3.org/1999/xlink" ns1:href="#b"/></g></mask><mask id="I" mask-type="alpha"><g filter="url(#c)"><path fill="#fff" d="M0 0h430v430H0z" opacity="0"/><use xmlns:ns2="http://www.w3.org/1999/xlink" ns2:href="#d"/></g></mask><mask id="H" mask-type="alpha"><g filter="url(#e)"><path fill="#fff" d="M0 0h430v430H0z" opacity="0"/><use xmlns:ns3="http://www.w3.org/1999/xlink" ns3:href="#f"/></g></mask><mask id="E" mask-type="alpha"><g filter="url(#g)"><path fill="#fff" d="M0 0h430v430H0z" opacity="0"/><use xmlns:ns4="http://www.w3.org/1999/xlink" ns4:href="#h"/></g></mask><mask id="D" mask-type="alpha"><g filter="url(#i)"><path fill="#fff" d="M0 0h430v430H0z" opacity="0"/><use xmlns:ns5="http://www.w3.org/1999/xlink" ns5:href="#j"/></g></mask><mask id="C" mask-type="alpha"><g filter="url(#l)"><path fill="#fff" d="M0 0h430v430H0z" opacity="0"/><use xmlns:ns6="http://www.w3.org/1999/xlink" ns6:href="#m"/></g></mask><mask id="B" mask-type="alpha"><g filter="url(#n)"><path fill="#fff" d="M0 0h430v430H0z" opacity="0"/><use xmlns:ns7="http://www.w3.org/1999/xlink" ns7:href="#o"/></g></mask><mask id="A" mask-type="alpha"><g filter="url(#p)"><path fill="#fff" d="M0 0h430v430H0z" opacity="0"/><use xmlns:ns8="http://www.w3.org/1999/xlink" ns8:href="#q"/></g></mask><mask id="w" mask-type="alpha"><g filter="url(#r)"><path fill="#fff" d="M0 0h430v430H0z" opacity="0"/><use xmlns:ns9="http://www.w3.org/1999/xlink" ns9:href="#s"/></g></mask><clipPath id="u"><path d="M0 0h430v430H0z"/></clipPath><clipPath id="v"><path d="M0 0h430v430H0z"/></clipPath><clipPath id="F"><path d="M0 0h430v430H0z"/></clipPath><clipPath id="G"><path d="M0 0h430v430H0z"/></clipPath><clipPath id="t"><path d="M0 0h430v430H0z"/></clipPath><clipPath id="x"><path d="M0 0h430v430H0z"/></clipPath><clipPath id="y"><path d="M0 0h430v430H0z"/></clipPath><g id="b" style="display:block"><path fill="red" d="M248.127 225.133q.006.005.005.006l-13.479 13.395-43.334 43.064c-7.438 7.392-21.99 13.393-32.477 13.393H79.361c0-10.065 6.132-27.017 22.314-31.866q.259-.078.521-.151c2.711-.759 5.698-1.181 8.979-1.181h55.013q.005 0 .007-.003l10.844-15.605 22.8-32.812 10.843-15.606.007.001 4.734 3.46 18.713 13.679zm-131.111 36.66.153 33.198"/><path fill-opacity="0" stroke="#911610" stroke-linecap="round" stroke-linejoin="round" stroke-width="0" d="M248.127 225.133q.006.005.005.006 0 0 0 0l-13.479 13.395-43.334 43.064c-7.438 7.392-21.99 13.393-32.477 13.393H79.361c0-10.065 6.132-27.017 22.314-31.866q.259-.078.521-.151c2.711-.759 5.698-1.181 8.979-1.181h55.013q.005 0 .007-.003 0 0 0 0l10.844-15.605 22.8-32.812 10.843-15.606q0 0 0 0l.007.001q0 0 0 0l4.734 3.46q0 0 0 0l18.713 13.679q0 0 0 0zq0 0 0 0m-131.111 36.66.153 33.198" class="primary"/></g><g id="d" style="display:block"><path fill="red" d="M248.127 225.133q.006.005.005.006l-13.479 13.395-43.334 43.064c-7.438 7.392-21.99 13.393-32.477 13.393H79.361c0-10.065 6.132-27.017 22.314-31.866q.259-.078.521-.151c2.711-.759 5.698-1.181 8.979-1.181h55.013q.005 0 .007-.003l10.844-15.605 22.8-32.812 10.843-15.606.007.001 4.734 3.46 18.713 13.679zm-131.111 36.66.153 33.198M264.25 134l-50 58 37.5 29.25 36.955-41.969L301.5 164.75l-17.24-14.232z"/><path fill-opacity="0" stroke="#911610" stroke-linecap="round" stroke-linejoin="round" stroke-width="0" d="M248.127 225.133q.006.005.005.006 0 0 0 0l-13.479 13.395-43.334 43.064c-7.438 7.392-21.99 13.393-32.477 13.393H79.361c0-10.065 6.132-27.017 22.314-31.866q.259-.078.521-.151c2.711-.759 5.698-1.181 8.979-1.181h55.013q.005 0 .007-.003 0 0 0 0l10.844-15.605 22.8-32.812 10.843-15.606q0 0 0 0l.007.001q0 0 0 0l4.734 3.46q0 0 0 0l18.713 13.679q0 0 0 0zq0 0 0 0m-131.111 36.66.153 33.198" class="primary"/><path fill="red" d="m264.25 134-50 58 37.5 29.25 36.955-41.969L301.5 164.75l-17.24-14.232z"/></g><g id="j" clip-path="url(#t)" style="display:block" transform="translate(-31.35 -3.35)scale(1.09)"><g style="display:block"><path fill-opacity="0" stroke="#FFF" stroke-linecap="round" stroke-linejoin="round" stroke-width="0" d="M237.515 167.094h-33.258l-25.723 29.333c-3.446 3.929-8.039 6.757-13.168 7.76-5.777 1.13-13.238.523-19.978-6.422 6.916-7.618 16.38-18.697 25.322-29.341 13.82-16.451 26.395-31.865 26.395-31.865h67.121m-98.298 37.539 18.11 16.052"/><path fill="red" d="M237.515 167.094h-33.258l-25.723 29.333c-3.446 3.929-8.039 6.757-13.168 7.76-5.777 1.13-13.238.523-19.978-6.422 6.916-7.618 16.38-18.697 25.322-29.341 13.82-16.451 26.395-31.865 26.395-31.865h67.121m-98.298 37.539 18.11 16.052"/></g><g style="display:block"><path fill-opacity="0" stroke="#FFF" stroke-linecap="round" stroke-linejoin="round" stroke-width="0" d="M215 215"/><path fill="red" d="M215 215"/><path fill-opacity="0" stroke="#FFF" stroke-linecap="round" stroke-linejoin="round" stroke-width="0" d="m250.747 221.561 35.512-40.95m-22.02-43.828-53.555 60.982 35.455 31.174 52.584-64.477z"/><path fill="red" d="m250.747 221.561 35.512-40.95m-22.02-43.828-53.555 60.982 35.455 31.174 52.584-64.477z"/></g><g style="display:block"><path fill-opacity="0" stroke="#FFF" stroke-linecap="round" stroke-linejoin="round" stroke-width="0" d="M248.127 225.133q.006.005.005.006 0 0 0 0l-13.479 13.395-43.334 43.064c-7.438 7.392-21.99 13.393-32.477 13.393H79.361c0-10.065 6.132-27.017 22.314-31.866q.259-.078.521-.151c2.711-.759 5.698-1.181 8.979-1.181h55.013q.005 0 .007-.003 0 0 0 0l10.844-15.605 22.8-32.812 10.843-15.606q0 0 0 0l.007.001q0 0 0 0l4.734 3.46q0 0 0 0l18.713 13.679q0 0 0 0zq0 0 0 0m-131.111 36.66.153 33.198"/><path fill="red" d="M248.127 225.133q.006.005.005.006l-13.479 13.395-43.334 43.064c-7.438 7.392-21.99 13.393-32.477 13.393H79.361c0-10.065 6.132-27.017 22.314-31.866q.259-.078.521-.151c2.711-.759 5.698-1.181 8.979-1.181h55.013q.005 0 .007-.003l10.844-15.605 22.8-32.812 10.843-15.606.007.001 4.734 3.46 18.713 13.679zm-131.111 36.66.153 33.198"/></g><g style="display:block"><path fill-opacity="0" stroke="#FFF" stroke-linecap="round" stroke-linejoin="round" stroke-width="0" d="M210.981 199.749c.014-.004.032-.004.039.002q0 0 0 0c.006.006 6.966 4.922 15.53 10.973l54.792 38.705c8.564 6.05 15.407 19.476 15.27 29.961 0 0-.498 36.045-.545 41.828-.002.189-.002-.111-.002-.03 6.85 12.424 12.707 18.875 16.558 24.667.101.152-.112-.134-.013.018-10.077 0-39.662.114-48.672.118-.179 0-.133-.01-.296-.01-.142-3.678.02-15.848.02-18.922 0-26.196.405-45.742.482-49.09.075 0 .009-.089.009-.089.005-.05.009-.092.008-.096q0 0 0 0c0-.004-7.502-4.032-16.742-8.99l-36.557-19.614c-9.24-4.958-16.739-8.984-16.735-8.986q0 0 0 0 .005-.003-.006-.008 0 0 0 0c-.007-.004 3.262-7.865 7.296-17.544l2.229-5.347c4.034-9.68 7.32-17.542 7.335-17.546q0 0 0 0m52.681 121.47 32.386.034"/><path fill="red" d="M210.981 199.749c.014-.004.032-.004.039.002l15.53 10.973 54.792 38.705c8.564 6.05 15.407 19.476 15.27 29.961 0 0-.498 36.045-.545 41.828-.002.189-.002-.111-.002-.03 6.85 12.424 12.707 18.875 16.558 24.667.101.152-.112-.134-.013.018-10.077 0-39.662.114-48.672.118-.179 0-.133-.01-.296-.01-.142-3.678.02-15.848.02-18.922 0-26.196.405-45.742.482-49.09.075 0 .009-.089.009-.089.005-.05.009-.092.008-.096s-7.502-4.032-16.742-8.99l-36.557-19.614c-9.24-4.958-16.739-8.984-16.735-8.986q.005-.003-.006-.008c-.007-.004 3.262-7.865 7.296-17.544l2.229-5.347c4.034-9.68 7.32-17.542 7.335-17.546m52.681 121.47 32.386.034"/></g><g style="display:block"><path fill-opacity="0" stroke="#FFF" stroke-linecap="round" stroke-linejoin="round" stroke-width="0" d="m210 198.5 41.75 29"/><path fill="red" d="m210 198.5 41.75 29"/></g><g style="display:block"><path fill-opacity="0" stroke="#FFF" stroke-linecap="round" stroke-linejoin="round" stroke-width="0" d="m296.579 89.602-9.606 17.031c-4.283 7.594-1.599 17.223 5.995 21.506l13.751 7.756 17.362-30.782c4.283-7.594 1.599-17.223-5.995-21.506v-.001c-7.594-4.283-17.224-1.598-21.507 5.996"/><path fill="red" d="m296.579 89.602-9.606 17.031c-4.283 7.594-1.599 17.223 5.995 21.506l13.751 7.756 17.362-30.782c4.283-7.594 1.599-17.223-5.995-21.506v-.001c-7.594-4.283-17.224-1.598-21.507 5.996"/></g><g style="display:block"><path fill-opacity="0" stroke="#FFF" stroke-linecap="round" stroke-linejoin="round" stroke-width="0" d="m278.944 174.521 36.174 30.116h51.441c17.331 0 21.457-25.439 21.457-25.439h-60.519l-29.368-23.264s-26.599-19.752-33.903-19.375m95.181 46.49v20.081"/><path fill="red" d="m278.944 174.521 36.174 30.116h51.441c17.331 0 21.457-25.439 21.457-25.439h-60.519l-29.368-23.264s-26.599-19.752-33.903-19.375m95.181 46.49v20.081"/></g></g><g id="m" style="display:block"><path fill="red" d="M248.127 225.133q.006.005.005.006l-13.479 13.395-43.334 43.064c-7.438 7.392-21.99 13.393-32.477 13.393H79.361c0-10.065 6.132-27.017 22.314-31.866q.259-.078.521-.151c2.711-.759 5.698-1.181 8.979-1.181h55.013q.005 0 .007-.003l10.844-15.605 22.8-32.812 10.843-15.606.007.001 4.734 3.46 18.713 13.679zm-131.111 36.66.153 33.198"/><path fill-opacity="0" stroke="#911610" stroke-linecap="round" stroke-linejoin="round" stroke-width="0" d="M248.127 225.133q.006.005.005.006 0 0 0 0l-13.479 13.395-43.334 43.064c-7.438 7.392-21.99 13.393-32.477 13.393H79.361c0-10.065 6.132-27.017 22.314-31.866q.259-.078.521-.151c2.711-.759 5.698-1.181 8.979-1.181h55.013q.005 0 .007-.003 0 0 0 0l10.844-15.605 22.8-32.812 10.843-15.606q0 0 0 0l.007.001q0 0 0 0l4.734 3.46q0 0 0 0l18.713 13.679q0 0 0 0zq0 0 0 0m-131.111 36.66.153 33.198" class="primary"/></g><g id="o" style="display:block"><path fill="red" d="M248.127 225.133q.006.005.005.006l-13.479 13.395-43.334 43.064c-7.438 7.392-21.99 13.393-32.477 13.393H79.361c0-10.065 6.132-27.017 22.314-31.866q.259-.078.521-.151c2.711-.759 5.698-1.181 8.979-1.181h55.013q.005 0 .007-.003l10.844-15.605 22.8-32.812 10.843-15.606.007.001 4.734 3.46 18.713 13.679zm-131.111 36.66.153 33.198M264.25 134l-50 58 37.5 29.25 36.955-41.969L301.5 164.75l-17.24-14.232z"/><path fill-opacity="0" stroke="#911610" stroke-linecap="round" stroke-linejoin="round" stroke-width="0" d="M248.127 225.133q.006.005.005.006 0 0 0 0l-13.479 13.395-43.334 43.064c-7.438 7.392-21.99 13.393-32.477 13.393H79.361c0-10.065 6.132-27.017 22.314-31.866q.259-.078.521-.151c2.711-.759 5.698-1.181 8.979-1.181h55.013q.005 0 .007-.003 0 0 0 0l10.844-15.605 22.8-32.812 10.843-15.606q0 0 0 0l.007.001q0 0 0 0l4.734 3.46q0 0 0 0l18.713 13.679q0 0 0 0zq0 0 0 0m-131.111 36.66.153 33.198" class="primary"/><path fill="red" d="m264.25 134-50 58 37.5 29.25 36.955-41.969L301.5 164.75l-17.24-14.232z"/></g><path id="f" fill="red" d="m278.944 174.52 36.174 30.117h51.44c17.332 0 21.458-25.44 21.458-25.44h-60.52l-29.367-23.263s-26.6-19.752-33.903-19.375m95.18 46.49v20.08" style="display:block"/><path id="q" fill="red" d="m278.944 174.52 36.174 30.117h51.44c17.332 0 21.458-25.44 21.458-25.44h-60.52l-29.367-23.263s-26.6-19.752-33.903-19.375m95.18 46.49v20.08" style="display:block"/><path id="h" fill="red" d="M-119.825-269.891h-146v533h409l-22.603-50.999-.199-52.1h-240.746v-320.02h.489z" style="display:block" transform="matrix(-1 0 0 1 230.175 214.891)"/><path id="s" fill="red" d="M85.175-269.891h-351v533h409l-22.603-50.999-.199-52.1h-240.746v-320.02H85.116z" style="display:block" transform="matrix(-1 0 0 1 230.175 214.891)"/></defs><g clip-path="url(#u)"><g clip-path="url(#v)" style="display:block"><g mask="url(#w)" style="display:none"><g clip-path="url(#x)" transform="translate(-31.35 -3.35)scale(1.09)"><g clip-path="url(#y)" mask="url(#A)" style="display:block"><g mask="url(#B)" style="display:block"><path fill="none" stroke="#E8392F" stroke-linecap="round" stroke-linejoin="round" stroke-width="17.955" d="M237.515 167.094h-33.258l-25.723 29.333c-3.446 3.929-8.039 6.757-13.168 7.76-5.777 1.13-13.238.523-19.978-6.422 6.916-7.618 16.38-18.697 25.322-29.341 13.82-16.451 26.395-31.865 26.395-31.865h67.121m-98.298 37.539 18.11 16.052" class="secondary"/></g><path fill="none" stroke="#E8392F" stroke-linecap="round" stroke-linejoin="round" stroke-width="17.955" d="m250.747 221.561 35.512-40.95m-22.033-44.052-53.542 61.206" class="secondary" style="display:block"/><path fill="none" stroke="#911610" stroke-linecap="round" stroke-linejoin="round" stroke-width="17.955" d="M33.127 10.133q.006.005.005.006 0 0 0 0L19.653 23.534l-43.334 43.064c-7.438 7.392-21.99 13.393-32.477 13.393h-79.481c0-10.065 6.132-27.017 22.314-31.866q.259-.078.521-.151c2.711-.759 5.698-1.181 8.979-1.181h55.013q.005 0 .007-.003 0 0 0 0l10.844-15.605 22.8-32.812 10.843-15.606q0 0 0 0l.007.001q0 0 0 0l4.734 3.46q0 0 0 0L19.136-.092q0 0 0 0zq0 0 0 0m-131.111 36.66.153 33.198" class="primary" style="display:block" transform="translate(215 215)"/><g mask="url(#C)" style="display:block"><path fill="none" stroke="#911610" stroke-linecap="round" stroke-linejoin="round" stroke-width="17.955" d="M210.981 199.749c.014-.004.032-.004.039.002q0 0 0 0c.006.006 6.966 4.922 15.53 10.973l54.792 38.705c8.564 6.05 15.407 19.476 15.27 29.961 0 0-.498 36.045-.545 41.828-.002.189-.002-.111-.002-.03 6.85 12.424 12.707 18.875 16.558 24.667.101.152-.112-.134-.013.018-10.077 0-39.662.114-48.672.118-.179 0-.133-.01-.296-.01-.142-3.678.02-15.848.02-18.922 0-26.196.405-45.742.482-49.09.075 0 .009-.089.009-.089.005-.05.009-.092.008-.096q0 0 0 0c0-.004-7.502-4.032-16.742-8.99l-36.557-19.614c-9.24-4.958-16.739-8.984-16.735-8.986q0 0 0 0 .005-.003-.006-.008 0 0 0 0c-.007-.004 3.262-7.865 7.296-17.544l2.229-5.347c4.034-9.68 7.32-17.542 7.335-17.546q0 0 0 0m52.681 121.47 32.386.034" class="primary"/></g><path fill="none" stroke="#911610" stroke-linecap="round" stroke-linejoin="round" stroke-width="17.955" d="m-4.25-16.5 41 29m44.829-137.898-9.606 17.031c-4.283 7.594-1.599 17.223 5.995 21.506l13.751 7.756 17.362-30.782c4.283-7.594 1.599-17.223-5.995-21.506v-.001c-7.594-4.283-17.224-1.598-21.507 5.996" class="primary" style="display:block" transform="translate(215 215)"/></g><path fill="none" stroke="#E8392F" stroke-linecap="round" stroke-linejoin="round" stroke-width="17.955" d="m63.944-40.479 36.174 30.116h51.441c17.331 0 21.457-25.439 21.457-25.439h-60.519L83.129-59.066S56.53-78.818 49.226-78.441m95.181 46.49v20.081" class="secondary" style="display:block" transform="translate(215 215)"/></g></g><g mask="url(#D)" style="display:block"><path fill="none" stroke="#911610" stroke-linecap="round" stroke-linejoin="round" stroke-width="17.955" d="M108.069 299.531V54.881h240.746m0 320.02H108.069v-75.37" class="primary"/></g><g mask="url(#E)" style="display:block"><g clip-path="url(#F)" transform="translate(-31.35 -3.35)scale(1.09)"><g clip-path="url(#G)" mask="url(#H)" style="display:block"><g mask="url(#I)" style="display:block"><path fill="none" stroke="#E8392F" stroke-linecap="round" stroke-linejoin="round" stroke-width="17.955" d="M237.515 167.094h-33.258l-25.723 29.333c-3.446 3.929-8.039 6.757-13.168 7.76-5.777 1.13-13.238.523-19.978-6.422 6.916-7.618 16.38-18.697 25.322-29.341 13.82-16.451 26.395-31.865 26.395-31.865h67.121m-98.298 37.539 18.11 16.052" class="secondary"/></g><path fill="none" stroke="#E8392F" stroke-linecap="round" stroke-linejoin="round" stroke-width="17.955" d="m250.747 221.561 35.512-40.95m-22.033-44.052-53.542 61.206" class="secondary" style="display:block"/><path fill="none" stroke="#911610" stroke-linecap="round" stroke-linejoin="round" stroke-width="17.955" d="M33.127 10.133q.006.005.005.006 0 0 0 0L19.653 23.534l-43.334 43.064c-7.438 7.392-21.99 13.393-32.477 13.393h-79.481c0-10.065 6.132-27.017 22.314-31.866q.259-.078.521-.151c2.711-.759 5.698-1.181 8.979-1.181h55.013q.005 0 .007-.003 0 0 0 0l10.844-15.605 22.8-32.812 10.843-15.606q0 0 0 0l.007.001q0 0 0 0l4.734 3.46q0 0 0 0L19.136-.092q0 0 0 0zq0 0 0 0m-131.111 36.66.153 33.198" class="primary" style="display:block" transform="translate(215 215)"/><g mask="url(#J)" style="display:block"><path fill="none" stroke="#911610" stroke-linecap="round" stroke-linejoin="round" stroke-width="17.955" d="M210.981 199.749c.014-.004.032-.004.039.002q0 0 0 0c.006.006 6.966 4.922 15.53 10.973l54.792 38.705c8.564 6.05 15.407 19.476 15.27 29.961 0 0-.498 36.045-.545 41.828-.002.189-.002-.111-.002-.03 6.85 12.424 12.707 18.875 16.558 24.667.101.152-.112-.134-.013.018-10.077 0-39.662.114-48.672.118-.179 0-.133-.01-.296-.01-.142-3.678.02-15.848.02-18.922 0-26.196.405-45.742.482-49.09.075 0 .009-.089.009-.089.005-.05.009-.092.008-.096q0 0 0 0c0-.004-7.502-4.032-16.742-8.99l-36.557-19.614c-9.24-4.958-16.739-8.984-16.735-8.986q0 0 0 0 .005-.003-.006-.008 0 0 0 0c-.007-.004 3.262-7.865 7.296-17.544l2.229-5.347c4.034-9.68 7.32-17.542 7.335-17.546q0 0 0 0m52.681 121.47 32.386.034" class="primary"/></g><path fill="none" stroke="#911610" stroke-linecap="round" stroke-linejoin="round" stroke-width="17.955" d="m-5-16.5 41.75 29m44.829-137.898-9.606 17.031c-4.283 7.594-1.599 17.223 5.995 21.506l13.751 7.756 17.362-30.782c4.283-7.594 1.599-17.223-5.995-21.506v-.001c-7.594-4.283-17.224-1.598-21.507 5.996" class="primary" style="display:block" transform="translate(215 215)"/></g><path fill="none" stroke="#E8392F" stroke-linecap="round" stroke-linejoin="round" stroke-width="17.955" d="m63.944-40.479 36.174 30.116h51.441c17.331 0 21.457-25.439 21.457-25.439h-60.519L83.129-59.066S56.53-78.818 49.226-78.441m95.181 46.49v20.081" class="secondary" style="display:block" transform="translate(215 215)"/></g></g><path fill="none" stroke="#911610" stroke-linecap="round" stroke-linejoin="round" stroke-width="17.955" d="M120.373-160.01v320.02" class="primary" style="display:block" transform="translate(228.442 214.891)"/></g></g></svg>