<svg xmlns="http://www.w3.org/2000/svg" width="430" height="431" fill="none" viewBox="0 0 430 431"><g stroke-linecap="round" stroke-linejoin="round" stroke-miterlimit="10" stroke-width="18"><path stroke="#ffa896" d="M171.9 324.2v-217m0 173.7 85.2-39.7c13-6.1 21.4-19.2 21.4-33.6v-41.5"/><path stroke="#e83a30" d="M278.4 166.1c14.304 0 25.9-11.596 25.9-25.9s-11.596-25.9-25.9-25.9-25.9 11.596-25.9 25.9 11.596 25.9 25.9 25.9m-106.5-58.8c14.304 0 25.9-11.596 25.9-25.9s-11.596-25.9-25.9-25.9S146 67.096 146 81.4s11.596 25.9 25.9 25.9m0 268.7c14.304 0 25.9-11.596 25.9-25.9s-11.596-25.9-25.9-25.9-25.9 11.596-25.9 25.9 11.596 25.9 25.9 25.9"/></g></svg>