<svg xmlns="http://www.w3.org/2000/svg" width="430" height="430" fill="none" viewBox="0 0 430 430"><path stroke="#e83a30" stroke-linecap="round" stroke-linejoin="round" stroke-miterlimit="17.2" stroke-width="18" d="m327.1 225.3-25.9 109.5m-30-90.9-10.9 90.9M217.4 256l-.4 78.8m-53.3-90 9.8 89m-65.7-107.3 24.9 107.8"/><path stroke="#911710" stroke-linecap="round" stroke-linejoin="round" stroke-miterlimit="17.2" stroke-width="18" d="m217 201.1.3-144M44.8 196.3l46.6 156c3.4 11.4 15.8 20.6 27.7 20.6h193.3c11.9 0 24.2-9.3 27.5-20.7l44.9-156m15.1-30v17.2c0 7.1-5.8 12.9-12.9 12.9H43c-7.1 0-12.9-5.8-12.9-12.9v-17.2c0-7.1 5.8-12.9 12.9-12.9h344c7.1 0 12.9 5.8 12.9 12.9"/><path fill="#911710" d="M215.8 224.4c9.776 0 17.7-7.343 17.7-16.4 0-9.058-7.924-16.4-17.7-16.4s-17.7 7.342-17.7 16.4 7.925 16.4 17.7 16.4"/></svg>